<svg width="250" height="61" viewBox="0 0 250 61" fill="none" xmlns="http://www.w3.org/2000/svg">
<g clip-path="url(#clip0_2_94)">
<path fill-rule="evenodd" clip-rule="evenodd" d="M19.5898 29.2383C20.8203 30.4687 22.5391 31.25 24.4336 31.25C26.3281 31.25 28.0273 30.4883 29.2773 29.2383C30.5078 28.0078 31.2891 26.2891 31.2891 24.3945C31.2891 22.5 30.5273 20.8008 29.2773 19.5508C28.0469 18.3203 26.3281 17.5391 24.4336 17.5391C22.5391 17.5391 20.8398 18.3008 19.5898 19.5508C18.3594 20.7812 17.5781 22.5 17.5781 24.3945C17.5781 26.2891 18.3594 28.0078 19.5898 29.2383ZM24.4336 0H53.1445L47.0313 8.30078H42.7734C44.6094 10.4102 46.1133 12.8125 47.1484 15.4492C48.2422 18.2227 48.8477 21.2305 48.8477 24.3945C48.8477 37.832 37.8516 48.8281 24.4141 48.8281C22.0313 48.8281 19.7461 48.4766 17.5781 47.8516V40.8008C19.6875 41.6797 21.9922 42.168 24.4141 42.168C29.3164 42.168 33.75 40.1758 36.9727 36.9727C40.1953 33.75 42.168 29.3164 42.168 24.4141C42.168 19.5117 40.1758 15.0781 36.9727 11.8555C33.7891 8.63281 29.3359 6.64062 24.4336 6.64062C19.5312 6.64062 15.0977 8.63281 11.875 11.8359C8.65234 15.0586 6.67969 19.4922 6.67969 24.3945V41.1328C2.53906 36.7578 0 30.8594 0 24.3945C0.0195313 10.918 10.957 0 24.4336 0ZM12.1289 60.3516C8.47656 60.3516 5.50781 57.3828 5.50781 53.7305C5.50781 50.0781 8.47656 47.1094 12.1289 47.1094C15.7812 47.1094 18.75 50.0781 18.75 53.7305C18.75 57.3828 15.8008 60.3516 12.1289 60.3516Z" fill="url(#paint0_linear_2_94)"/>
<path d="M63.4961 38.3594H61.0938V37.5H66.8945V38.3789H64.4922V44.5117H63.4961V38.3594ZM70.9375 39.1406C71.6016 39.1406 72.1484 39.3359 72.5391 39.7266C72.9297 40.1172 73.125 40.6836 73.125 41.4453V44.4922H72.168V41.543C72.168 41.0352 72.0508 40.6445 71.7969 40.3906C71.543 40.1367 71.1914 40 70.7422 40C70.2148 40 69.8047 40.1562 69.5117 40.4492C69.2188 40.7422 69.0625 41.1914 69.0625 41.7578V44.4922H68.1055V37.0703H69.0625V39.9414C69.2578 39.6875 69.5313 39.4922 69.8438 39.3555C70.1758 39.2187 70.5469 39.1406 70.9375 39.1406ZM80.0195 41.875C80.0195 41.9531 80.0195 42.0508 80 42.168H75.7031C75.7617 42.6367 75.9766 43.0078 76.3281 43.3008C76.6797 43.5937 77.1094 43.7305 77.6367 43.7305C78.2617 43.7305 78.7891 43.5156 79.1602 43.0859L79.6875 43.7109C79.4531 43.9844 79.1406 44.1992 78.7891 44.3555C78.4375 44.5117 78.0273 44.5703 77.5977 44.5703C77.0312 44.5703 76.543 44.4531 76.1133 44.2187C75.6836 43.9844 75.3516 43.6719 75.1172 43.2617C74.8828 42.8516 74.7656 42.3828 74.7656 41.8555C74.7656 41.3477 74.8828 40.8789 75.1172 40.4687C75.3516 40.0586 75.6641 39.7266 76.0742 39.5117C76.4844 39.2773 76.9336 39.1602 77.4414 39.1602C77.9492 39.1602 78.3984 39.2773 78.7891 39.5117C79.1797 39.7461 79.4922 40.0586 79.7266 40.4687C79.9023 40.8789 80.0195 41.3477 80.0195 41.875ZM77.4023 39.9609C76.9336 39.9609 76.5625 40.0977 76.25 40.3906C75.9375 40.6641 75.7617 41.0352 75.7031 41.4844H79.1016C79.043 41.0352 78.8672 40.6641 78.5547 40.3906C78.2422 40.0977 77.8516 39.9609 77.4023 39.9609ZM85.9766 37.8125C85.4102 37.8125 85.1172 38.125 85.1172 38.75V39.2187H86.6602V40H85.1367V44.5117H84.1797V40H83.2813V39.2187H84.1797V38.75C84.1797 38.2227 84.3359 37.8125 84.6484 37.5C84.9609 37.1875 85.3906 37.0312 85.9375 37.0312C86.1523 37.0312 86.3477 37.0508 86.543 37.1094C86.7383 37.168 86.8945 37.2461 87.0313 37.3437L86.7383 38.0664C86.5039 37.8906 86.25 37.8125 85.9766 37.8125ZM90.0391 44.5703C89.5117 44.5703 89.043 44.4531 88.6133 44.2187C88.1836 43.9844 87.8711 43.6719 87.6367 43.2617C87.4023 42.8516 87.2852 42.3828 87.2852 41.875C87.2852 41.3477 87.4023 40.8984 87.6367 40.4883C87.8711 40.0781 88.2031 39.7656 88.6133 39.5312C89.043 39.2969 89.5117 39.1797 90.0391 39.1797C90.5664 39.1797 91.0352 39.2969 91.4453 39.5312C91.8555 39.7656 92.1875 40.0781 92.4219 40.4883C92.6563 40.8984 92.7734 41.3672 92.7734 41.875C92.7734 42.4023 92.6563 42.8516 92.4219 43.2617C92.1875 43.6719 91.8555 43.9844 91.4453 44.2187C91.0352 44.4531 90.5664 44.5703 90.0391 44.5703ZM90.0391 43.7305C90.3711 43.7305 90.6836 43.6523 90.957 43.4961C91.2305 43.3398 91.4453 43.125 91.6016 42.832C91.7578 42.5391 91.8359 42.2266 91.8359 41.8555C91.8359 41.4844 91.7578 41.1719 91.6016 40.8789C91.4453 40.5859 91.2305 40.3711 90.957 40.2148C90.6836 40.0586 90.3906 39.9805 90.0391 39.9805C89.707 39.9805 89.3945 40.0586 89.1211 40.2148C88.8477 40.3711 88.6328 40.5859 88.4766 40.8789C88.3203 41.1523 88.2422 41.4844 88.2422 41.8555C88.2422 42.2266 88.3203 42.5391 88.4766 42.832C88.6328 43.125 88.8477 43.3398 89.1211 43.4961C89.3945 43.6523 89.6875 43.7305 90.0391 43.7305ZM99.3164 39.1992V44.4922H98.3984V43.6914C98.2031 43.9648 97.9492 44.1797 97.6367 44.3359C97.3242 44.4922 96.9727 44.5508 96.6016 44.5508C95.8984 44.5508 95.332 44.3555 94.9219 43.9648C94.5117 43.5742 94.3164 43.0078 94.3164 42.2461V39.1992H95.2734V42.1484C95.2734 42.6562 95.3906 43.0469 95.6445 43.3203C95.8984 43.5742 96.25 43.7109 96.6992 43.7109C97.207 43.7109 97.5977 43.5547 97.8906 43.2422C98.1836 42.9297 98.3398 42.5 98.3398 41.9336V39.1992H99.3164ZM104.258 39.1406C104.922 39.1406 105.469 39.3359 105.859 39.7266C106.25 40.1172 106.445 40.6836 106.445 41.4453V44.4922H105.488V41.543C105.488 41.0352 105.371 40.6445 105.117 40.3906C104.863 40.1367 104.512 40 104.062 40C103.535 40 103.125 40.1562 102.832 40.4492C102.539 40.7617 102.383 41.1914 102.383 41.7578V44.4922H101.426V39.1992H102.344V40C102.539 39.7266 102.793 39.5117 103.125 39.375C103.457 39.2187 103.828 39.1406 104.258 39.1406ZM113.535 37.0703V44.4922H112.617V43.6523C112.402 43.9453 112.129 44.1602 111.797 44.3164C111.465 44.4727 111.113 44.5508 110.723 44.5508C110.215 44.5508 109.746 44.4336 109.336 44.2187C108.926 43.9844 108.613 43.6719 108.379 43.2617C108.145 42.8516 108.027 42.3828 108.027 41.8555C108.027 41.3281 108.145 40.8594 108.379 40.4492C108.613 40.0391 108.926 39.7266 109.336 39.4922C109.746 39.2578 110.195 39.1602 110.723 39.1602C111.094 39.1602 111.445 39.2383 111.777 39.375C112.09 39.5117 112.363 39.7266 112.578 40.0195V37.0898H113.535V37.0703ZM110.801 43.7305C111.133 43.7305 111.445 43.6523 111.719 43.4961C111.992 43.3398 112.207 43.125 112.363 42.832C112.52 42.5391 112.598 42.2266 112.598 41.8555C112.598 41.4844 112.52 41.1719 112.363 40.8789C112.207 40.5859 111.992 40.3711 111.719 40.2148C111.445 40.0586 111.133 39.9805 110.801 39.9805C110.469 39.9805 110.156 40.0586 109.883 40.2148C109.609 40.3711 109.395 40.5859 109.238 40.8789C109.082 41.1523 109.004 41.4844 109.004 41.8555C109.004 42.2266 109.082 42.5391 109.238 42.832C109.395 43.125 109.609 43.3398 109.883 43.4961C110.156 43.6523 110.469 43.7305 110.801 43.7305ZM117.559 39.1406C118.301 39.1406 118.848 39.3164 119.238 39.6875C119.629 40.0391 119.824 40.5859 119.824 41.2891V44.4922H118.906V43.7891C118.75 44.043 118.516 44.2188 118.223 44.3555C117.93 44.4922 117.578 44.5508 117.168 44.5508C116.582 44.5508 116.094 44.4141 115.742 44.1211C115.391 43.8281 115.215 43.457 115.215 42.9883C115.215 42.5195 115.391 42.1484 115.723 41.8555C116.055 41.5625 116.602 41.4258 117.344 41.4258H118.867V41.2305C118.867 40.8203 118.75 40.5078 118.516 40.2734C118.281 40.0586 117.93 39.9414 117.461 39.9414C117.148 39.9414 116.836 40 116.543 40.0977C116.25 40.1953 115.996 40.332 115.781 40.5078L115.391 39.7852C115.664 39.5703 115.996 39.3945 116.367 39.2773C116.738 39.1992 117.129 39.1406 117.559 39.1406ZM117.344 43.8281C117.715 43.8281 118.027 43.75 118.301 43.5742C118.574 43.418 118.77 43.1836 118.887 42.8711V42.1289H117.383C116.563 42.1289 116.172 42.4023 116.172 42.9492C116.172 43.2227 116.27 43.418 116.484 43.5742C116.68 43.75 116.973 43.8281 117.344 43.8281ZM124.863 44.1992C124.727 44.3164 124.551 44.4141 124.336 44.4727C124.121 44.5312 123.906 44.5703 123.691 44.5703C123.164 44.5703 122.754 44.4336 122.441 44.1406C122.148 43.8477 121.992 43.4375 121.992 42.9102V40H121.094V39.2187H121.992V38.0664H122.949V39.2187H124.473V40H122.949V42.8711C122.949 43.1641 123.027 43.3789 123.164 43.5352C123.301 43.6914 123.516 43.7695 123.789 43.7695C124.082 43.7695 124.336 43.6914 124.531 43.5156L124.863 44.1992ZM126.289 39.1992H127.246V44.4922H126.289V39.1992ZM126.777 38.1836C126.582 38.1836 126.426 38.125 126.309 38.0078C126.191 37.8906 126.133 37.7344 126.133 37.5586C126.133 37.3828 126.191 37.2461 126.309 37.1094C126.426 36.9922 126.582 36.9336 126.777 36.9336C126.973 36.9336 127.129 36.9922 127.246 37.1094C127.363 37.2266 127.422 37.3633 127.422 37.5391C127.422 37.7148 127.363 37.8711 127.246 37.9883C127.109 38.125 126.953 38.1836 126.777 38.1836ZM131.621 44.5703C131.094 44.5703 130.625 44.4531 130.195 44.2187C129.766 43.9844 129.453 43.6719 129.219 43.2617C128.984 42.8516 128.867 42.3828 128.867 41.875C128.867 41.3477 128.984 40.8984 129.219 40.4883C129.453 40.0781 129.785 39.7656 130.195 39.5312C130.625 39.2969 131.094 39.1797 131.621 39.1797C132.148 39.1797 132.617 39.2969 133.027 39.5312C133.437 39.7656 133.77 40.0781 134.004 40.4883C134.238 40.8984 134.355 41.3672 134.355 41.875C134.355 42.4023 134.238 42.8516 134.004 43.2617C133.77 43.6719 133.437 43.9844 133.027 44.2187C132.617 44.4531 132.148 44.5703 131.621 44.5703ZM131.621 43.7305C131.953 43.7305 132.266 43.6523 132.539 43.4961C132.812 43.3398 133.027 43.125 133.184 42.832C133.34 42.5391 133.418 42.2266 133.418 41.8555C133.418 41.4844 133.34 41.1719 133.184 40.8789C133.027 40.5859 132.812 40.3711 132.539 40.2148C132.266 40.0586 131.973 39.9805 131.621 39.9805C131.289 39.9805 130.977 40.0586 130.703 40.2148C130.43 40.3711 130.215 40.5859 130.059 40.8789C129.902 41.1523 129.824 41.4844 129.824 41.8555C129.824 42.2266 129.902 42.5391 130.059 42.832C130.215 43.125 130.43 43.3398 130.703 43.4961C130.977 43.6523 131.289 43.7305 131.621 43.7305ZM138.809 39.1406C139.473 39.1406 140.02 39.3359 140.41 39.7266C140.801 40.1172 140.996 40.6836 140.996 41.4453V44.4922H140.039V41.543C140.039 41.0352 139.922 40.6445 139.668 40.3906C139.414 40.1367 139.063 40 138.613 40C138.086 40 137.676 40.1562 137.383 40.4492C137.09 40.7617 136.934 41.1914 136.934 41.7578V44.4922H135.977V39.1992H136.895V40C137.09 39.7266 137.344 39.5117 137.676 39.375C138.008 39.2187 138.379 39.1406 138.809 39.1406ZM147.754 44.5703C147.227 44.5703 146.758 44.4531 146.328 44.2187C145.898 43.9844 145.586 43.6719 145.352 43.2617C145.117 42.8516 145 42.3828 145 41.875C145 41.3477 145.117 40.8984 145.352 40.4883C145.586 40.0781 145.918 39.7656 146.328 39.5312C146.758 39.2969 147.227 39.1797 147.754 39.1797C148.281 39.1797 148.75 39.2969 149.16 39.5312C149.57 39.7656 149.902 40.0781 150.137 40.4883C150.371 40.8984 150.488 41.3672 150.488 41.875C150.488 42.4023 150.371 42.8516 150.137 43.2617C149.902 43.6719 149.57 43.9844 149.16 44.2187C148.75 44.4531 148.281 44.5703 147.754 44.5703ZM147.754 43.7305C148.086 43.7305 148.398 43.6523 148.672 43.4961C148.945 43.3398 149.16 43.125 149.316 42.832C149.473 42.5391 149.551 42.2266 149.551 41.8555C149.551 41.4844 149.473 41.1719 149.316 40.8789C149.16 40.5859 148.945 40.3711 148.672 40.2148C148.398 40.0586 148.105 39.9805 147.754 39.9805C147.422 39.9805 147.109 40.0586 146.836 40.2148C146.563 40.3711 146.348 40.5859 146.191 40.8789C146.035 41.1523 145.957 41.4844 145.957 41.8555C145.957 42.2266 146.035 42.5391 146.191 42.832C146.348 43.125 146.563 43.3398 146.836 43.4961C147.109 43.6523 147.422 43.7305 147.754 43.7305ZM154.043 37.8125C153.477 37.8125 153.184 38.125 153.184 38.75V39.2187H154.727V40H153.203V44.5117H152.246V40H151.348V39.2187H152.246V38.75C152.246 38.2227 152.402 37.8125 152.715 37.5C153.027 37.1875 153.457 37.0312 154.004 37.0312C154.219 37.0312 154.414 37.0508 154.609 37.1094C154.805 37.168 154.961 37.2461 155.098 37.3437L154.805 38.0664C154.57 37.8906 154.316 37.8125 154.043 37.8125ZM163.027 39.1992L160.449 45.0391C160.215 45.5859 159.961 45.957 159.648 46.1719C159.336 46.3867 158.984 46.5039 158.555 46.5039C158.301 46.5039 158.047 46.4648 157.793 46.3867C157.559 46.3086 157.344 46.1719 157.188 46.0156L157.598 45.293C157.871 45.5469 158.184 45.6836 158.555 45.6836C158.789 45.6836 158.984 45.625 159.141 45.5078C159.297 45.3906 159.434 45.1758 159.57 44.8633L159.746 44.4922L157.402 39.1992H158.398L160.254 43.4375L162.09 39.1992H163.027ZM166.309 44.5703C165.781 44.5703 165.313 44.4531 164.883 44.2187C164.453 43.9844 164.141 43.6719 163.906 43.2617C163.672 42.8516 163.555 42.3828 163.555 41.875C163.555 41.3477 163.672 40.8984 163.906 40.4883C164.141 40.0781 164.473 39.7656 164.883 39.5312C165.313 39.2969 165.781 39.1797 166.309 39.1797C166.836 39.1797 167.305 39.2969 167.715 39.5312C168.125 39.7656 168.457 40.0781 168.691 40.4883C168.926 40.8984 169.043 41.3672 169.043 41.875C169.043 42.4023 168.926 42.8516 168.691 43.2617C168.457 43.6719 168.125 43.9844 167.715 44.2187C167.305 44.4531 166.836 44.5703 166.309 44.5703ZM166.309 43.7305C166.641 43.7305 166.953 43.6523 167.227 43.4961C167.5 43.3398 167.715 43.125 167.871 42.832C168.027 42.5391 168.105 42.2266 168.105 41.8555C168.105 41.4844 168.027 41.1719 167.871 40.8789C167.715 40.5859 167.5 40.3711 167.227 40.2148C166.953 40.0586 166.66 39.9805 166.309 39.9805C165.977 39.9805 165.664 40.0586 165.391 40.2148C165.117 40.3711 164.902 40.5859 164.746 40.8789C164.59 41.1523 164.512 41.4844 164.512 41.8555C164.512 42.2266 164.59 42.5391 164.746 42.832C164.902 43.125 165.117 43.3398 165.391 43.4961C165.664 43.6523 165.977 43.7305 166.309 43.7305ZM175.605 39.1992V44.4922H174.688V43.6914C174.492 43.9648 174.238 44.1797 173.926 44.3359C173.613 44.4922 173.262 44.5508 172.891 44.5508C172.188 44.5508 171.621 44.3555 171.211 43.9648C170.801 43.5742 170.605 43.0078 170.605 42.2461V39.1992H171.563V42.1484C171.563 42.6562 171.68 43.0469 171.934 43.3203C172.187 43.5742 172.539 43.7109 172.988 43.7109C173.496 43.7109 173.887 43.5547 174.18 43.2422C174.473 42.9297 174.629 42.5 174.629 41.9336V39.1992H175.605ZM178.633 40.0977C178.809 39.7852 179.043 39.5508 179.375 39.3945C179.707 39.2383 180.098 39.1602 180.566 39.1602V40.0977C180.508 40.0977 180.449 40.0781 180.352 40.0781C179.824 40.0781 179.414 40.2344 179.121 40.5469C178.828 40.8594 178.672 41.3086 178.672 41.875V44.5117H177.715V39.2187H178.633V40.0977ZM186.777 44.5703C186.25 44.5703 185.781 44.4531 185.352 44.2187C184.922 43.9844 184.609 43.6719 184.375 43.2617C184.141 42.8516 184.023 42.3828 184.023 41.875C184.023 41.3477 184.141 40.8984 184.375 40.4883C184.609 40.0781 184.941 39.7656 185.352 39.5312C185.781 39.2969 186.25 39.1797 186.777 39.1797C187.305 39.1797 187.773 39.2969 188.184 39.5312C188.594 39.7656 188.926 40.0781 189.16 40.4883C189.395 40.8984 189.512 41.3672 189.512 41.875C189.512 42.4023 189.395 42.8516 189.16 43.2617C188.926 43.6719 188.594 43.9844 188.184 44.2187C187.773 44.4531 187.305 44.5703 186.777 44.5703ZM186.777 43.7305C187.109 43.7305 187.422 43.6523 187.695 43.4961C187.969 43.3398 188.184 43.125 188.34 42.832C188.496 42.5391 188.574 42.2266 188.574 41.8555C188.574 41.4844 188.496 41.1719 188.34 40.8789C188.184 40.5859 187.969 40.3711 187.695 40.2148C187.422 40.0586 187.129 39.9805 186.777 39.9805C186.445 39.9805 186.133 40.0586 185.859 40.2148C185.586 40.3711 185.371 40.5859 185.215 40.8789C185.059 41.1523 184.98 41.4844 184.98 41.8555C184.98 42.2266 185.059 42.5391 185.215 42.832C185.371 43.125 185.586 43.3398 185.859 43.4961C186.113 43.6523 186.426 43.7305 186.777 43.7305ZM193.945 39.1406C194.609 39.1406 195.156 39.3359 195.547 39.7266C195.938 40.1172 196.133 40.6836 196.133 41.4453V44.4922H195.176V41.543C195.176 41.0352 195.059 40.6445 194.805 40.3906C194.551 40.1367 194.199 40 193.75 40C193.223 40 192.813 40.1562 192.52 40.4492C192.227 40.7617 192.07 41.1914 192.07 41.7578V44.4922H191.113V39.1992H192.031V40C192.227 39.7266 192.48 39.5117 192.813 39.375C193.164 39.2187 193.535 39.1406 193.945 39.1406ZM198.203 37.0703H199.16V44.4922H198.203V37.0703ZM201.27 39.1992H202.227V44.4922H201.27V39.1992ZM201.738 38.1836C201.543 38.1836 201.387 38.125 201.27 38.0078C201.152 37.8906 201.094 37.7344 201.094 37.5586C201.094 37.3828 201.152 37.2461 201.27 37.1094C201.387 36.9922 201.543 36.9336 201.738 36.9336C201.934 36.9336 202.09 36.9922 202.207 37.1094C202.324 37.2266 202.383 37.3633 202.383 37.5391C202.383 37.7148 202.324 37.8711 202.207 37.9883C202.09 38.125 201.934 38.1836 201.738 38.1836ZM207.148 39.1406C207.812 39.1406 208.359 39.3359 208.75 39.7266C209.141 40.1172 209.336 40.6836 209.336 41.4453V44.4922H208.379V41.543C208.379 41.0352 208.262 40.6445 208.008 40.3906C207.754 40.1367 207.402 40 206.953 40C206.426 40 206.016 40.1562 205.723 40.4492C205.43 40.7617 205.273 41.1914 205.273 41.7578V44.4922H204.316V39.1992H205.234V40C205.43 39.7266 205.684 39.5117 206.016 39.375C206.367 39.2187 206.738 39.1406 207.148 39.1406ZM216.23 41.875C216.23 41.9531 216.23 42.0508 216.211 42.168H211.914C211.973 42.6367 212.187 43.0078 212.539 43.3008C212.891 43.5937 213.32 43.7305 213.848 43.7305C214.473 43.7305 215 43.5156 215.371 43.0859L215.898 43.7109C215.664 43.9844 215.352 44.1992 215 44.3555C214.648 44.5117 214.238 44.5703 213.809 44.5703C213.242 44.5703 212.754 44.4531 212.324 44.2187C211.895 43.9844 211.563 43.6719 211.328 43.2617C211.094 42.8516 210.977 42.3828 210.977 41.8555C210.977 41.3477 211.094 40.8789 211.328 40.4687C211.563 40.0586 211.875 39.7266 212.285 39.5117C212.695 39.2773 213.145 39.1602 213.652 39.1602C214.16 39.1602 214.609 39.2773 215 39.5117C215.391 39.7461 215.703 40.0586 215.937 40.4687C216.113 40.8789 216.23 41.3477 216.23 41.875ZM213.613 39.9609C213.145 39.9609 212.773 40.0977 212.461 40.3906C212.148 40.6641 211.973 41.0352 211.914 41.4844H215.313C215.254 41.0352 215.078 40.6641 214.766 40.3906C214.453 40.0977 214.062 39.9609 213.613 39.9609ZM223.066 39.1406C223.574 39.1406 224.043 39.2578 224.453 39.4727C224.863 39.707 225.176 40.0195 225.41 40.4297C225.645 40.8398 225.762 41.3086 225.762 41.8359C225.762 42.3633 225.645 42.832 225.41 43.2422C225.176 43.6523 224.863 43.9648 224.453 44.1992C224.043 44.4336 223.594 44.5312 223.066 44.5312C222.676 44.5312 222.305 44.4531 221.992 44.2969C221.66 44.1406 221.387 43.9258 221.191 43.6328V44.4727H220.273V37.0508H221.23V39.9805C221.445 39.707 221.719 39.4922 222.031 39.3359C222.324 39.2187 222.676 39.1406 223.066 39.1406ZM222.988 43.7305C223.32 43.7305 223.633 43.6523 223.906 43.4961C224.18 43.3398 224.395 43.125 224.551 42.832C224.707 42.5391 224.785 42.2266 224.785 41.8555C224.785 41.4844 224.707 41.1719 224.551 40.8789C224.395 40.5859 224.18 40.3711 223.906 40.2148C223.633 40.0586 223.34 39.9805 222.988 39.9805C222.656 39.9805 222.344 40.0586 222.07 40.2148C221.797 40.3711 221.582 40.5859 221.426 40.8789C221.27 41.1523 221.191 41.4844 221.191 41.8555C221.191 42.2266 221.27 42.5391 221.426 42.832C221.582 43.125 221.797 43.3398 222.07 43.4961C222.344 43.6523 222.656 43.7305 222.988 43.7305ZM228.262 40.0977C228.437 39.7852 228.672 39.5508 229.004 39.3945C229.336 39.2383 229.727 39.1602 230.195 39.1602V40.0977C230.137 40.0977 230.078 40.0781 229.98 40.0781C229.453 40.0781 229.043 40.2344 228.75 40.5469C228.457 40.8594 228.301 41.3086 228.301 41.875V44.5117H227.344V39.2187H228.262V40.0977ZM233.555 39.1406C234.297 39.1406 234.844 39.3164 235.234 39.6875C235.625 40.0391 235.82 40.5859 235.82 41.2891V44.4922H234.902V43.7891C234.746 44.043 234.512 44.2188 234.219 44.3555C233.926 44.4922 233.574 44.5508 233.164 44.5508C232.578 44.5508 232.09 44.4141 231.738 44.1211C231.387 43.8281 231.211 43.457 231.211 42.9883C231.211 42.5195 231.387 42.1484 231.719 41.8555C232.051 41.5625 232.598 41.4258 233.34 41.4258H234.863V41.2305C234.863 40.8203 234.746 40.5078 234.512 40.2734C234.277 40.0586 233.926 39.9414 233.457 39.9414C233.145 39.9414 232.832 40 232.539 40.0977C232.246 40.1953 231.992 40.332 231.777 40.5078L231.387 39.7852C231.66 39.5703 231.992 39.3945 232.363 39.2773C232.734 39.1992 233.145 39.1406 233.555 39.1406ZM233.34 43.8281C233.711 43.8281 234.023 43.75 234.297 43.5742C234.57 43.418 234.766 43.1836 234.883 42.8711V42.1289H233.398C232.578 42.1289 232.188 42.4023 232.188 42.9492C232.188 43.2227 232.285 43.418 232.5 43.5742C232.695 43.75 232.969 43.8281 233.34 43.8281ZM240.723 39.1406C241.387 39.1406 241.934 39.3359 242.324 39.7266C242.715 40.1172 242.91 40.6836 242.91 41.4453V44.4922H241.953V41.543C241.953 41.0352 241.836 40.6445 241.582 40.3906C241.328 40.1367 240.977 40 240.527 40C240 40 239.59 40.1562 239.297 40.4492C239.004 40.7617 238.848 41.1914 238.848 41.7578V44.4922H237.891V39.1992H238.809V40C239.004 39.7266 239.258 39.5117 239.59 39.375C239.922 39.2187 240.293 39.1406 240.723 39.1406ZM250 37.0703V44.4922H249.082V43.6523C248.867 43.9453 248.594 44.1602 248.281 44.3164C247.949 44.4727 247.598 44.5508 247.207 44.5508C246.699 44.5508 246.23 44.4336 245.82 44.2187C245.41 43.9844 245.098 43.6719 244.863 43.2617C244.629 42.8516 244.512 42.3828 244.512 41.8555C244.512 41.3281 244.629 40.8594 244.863 40.4492C245.098 40.0391 245.41 39.7266 245.82 39.4922C246.23 39.2578 246.68 39.1602 247.207 39.1602C247.578 39.1602 247.93 39.2383 248.262 39.375C248.574 39.5117 248.848 39.7266 249.062 40.0195V37.0898H250V37.0703ZM247.266 43.7305C247.598 43.7305 247.91 43.6523 248.184 43.4961C248.457 43.3398 248.672 43.125 248.828 42.832C248.984 42.5391 249.062 42.2266 249.062 41.8555C249.062 41.4844 248.984 41.1719 248.828 40.8789C248.672 40.5859 248.457 40.3711 248.184 40.2148C247.91 40.0586 247.598 39.9805 247.266 39.9805C246.934 39.9805 246.621 40.0586 246.348 40.2148C246.074 40.3711 245.859 40.5859 245.703 40.8789C245.547 41.1523 245.469 41.4844 245.469 41.8555C245.469 42.2266 245.547 42.5391 245.703 42.832C245.859 43.125 246.074 43.3398 246.348 43.4961C246.621 43.6523 246.934 43.7305 247.266 43.7305Z" fill="#0D4280"/>
<path d="M69.0234 29.7656C67.4805 29.7656 65.9961 29.5508 64.5508 29.1406C63.1055 28.7305 61.9531 28.1836 61.0938 27.5195L62.6172 24.1211C63.457 24.7266 64.4531 25.2148 65.5859 25.5859C66.7383 25.957 67.8906 26.1328 69.043 26.1328C70.332 26.1328 71.2695 25.9375 71.875 25.5664C72.4805 25.1953 72.793 24.6875 72.793 24.043C72.793 23.5742 72.6172 23.2031 72.2461 22.8906C71.875 22.5781 71.4258 22.3438 70.8594 22.1484C70.293 21.9727 69.5313 21.7578 68.5742 21.543C67.0898 21.1914 65.8789 20.8398 64.9219 20.4883C63.9844 20.1367 63.1641 19.5703 62.4805 18.7891C61.7969 18.0078 61.4648 16.9727 61.4648 15.6641C61.4648 14.5312 61.7773 13.5156 62.3828 12.5977C62.9883 11.6797 63.9258 10.957 65.1563 10.4102C66.3867 9.86328 67.8906 9.60938 69.668 9.60938C70.918 9.60938 72.1289 9.76563 73.3203 10.0586C74.5117 10.3516 75.5469 10.7812 76.4453 11.3477L75.0586 14.7656C73.2617 13.75 71.4648 13.2422 69.668 13.2422C68.3984 13.2422 67.4805 13.4375 66.875 13.8477C66.2695 14.2578 65.9766 14.7852 65.9766 15.4687C65.9766 16.1523 66.3281 16.6406 67.0117 16.9531C67.7148 17.2852 68.7695 17.5977 70.1953 17.9102C71.6797 18.2617 72.8906 18.6133 73.8477 18.9648C74.7852 19.3164 75.6055 19.8828 76.2891 20.625C76.9727 21.3867 77.3047 22.4219 77.3047 23.7109C77.3047 24.8242 76.9922 25.8398 76.3672 26.7578C75.7422 27.6758 74.8047 28.3984 73.5742 28.9453C72.3242 29.5117 70.8008 29.7656 69.0234 29.7656ZM79.2773 14.4727H83.6133V29.4336H79.2773V14.4727ZM81.4453 12.3828C80.6445 12.3828 80 12.1484 79.4922 11.6797C78.9844 11.2109 78.75 10.6445 78.75 9.96094C78.75 9.27734 79.0039 8.69141 79.4922 8.24219C80 7.77344 80.6445 7.53906 81.4453 7.53906C82.2461 7.53906 82.8906 7.75391 83.3984 8.20313C83.9063 8.65234 84.1406 9.19922 84.1406 9.86328C84.1406 10.5859 83.8867 11.1914 83.3984 11.6602C82.8906 12.1484 82.2461 12.3828 81.4453 12.3828ZM102.305 14.4727V26.9336C102.305 29.6875 101.582 31.7188 100.156 33.0469C98.7305 34.375 96.6406 35.0586 93.9062 35.0586C92.4609 35.0586 91.0938 34.8828 89.7852 34.5313C88.4766 34.1797 87.4023 33.6719 86.5625 33.0078L88.2813 29.8828C88.9063 30.4102 89.707 30.8203 90.6641 31.1133C91.6211 31.4258 92.5977 31.5625 93.5547 31.5625C95.0586 31.5625 96.1719 31.2305 96.875 30.5469C97.5977 29.8633 97.9492 28.8477 97.9492 27.4805V26.8359C96.8164 28.0859 95.2344 28.6914 93.2227 28.6914C91.8555 28.6914 90.5859 28.3984 89.4531 27.793C88.3203 27.1875 87.4023 26.3477 86.7383 25.2539C86.0742 24.1602 85.7422 22.8906 85.7422 21.4648C85.7422 20.0391 86.0742 18.7695 86.7383 17.6758C87.4023 16.582 88.3008 15.7422 89.4531 15.1367C90.5859 14.5313 91.8555 14.2383 93.2227 14.2383C95.3906 14.2383 97.0508 14.9609 98.1641 16.3867V14.4727H102.305ZM94.1016 25.1563C95.2539 25.1563 96.1914 24.8242 96.9336 24.1406C97.6758 23.457 98.0273 22.5781 98.0273 21.4844C98.0273 20.3906 97.6563 19.5117 96.9336 18.8281C96.1914 18.1445 95.2539 17.8125 94.1016 17.8125C92.9492 17.8125 92.0117 18.1445 91.2695 18.8281C90.5273 19.5117 90.1563 20.3906 90.1563 21.4844C90.1563 22.5781 90.5273 23.457 91.2695 24.1406C92.0117 24.8242 92.9492 25.1563 94.1016 25.1563ZM124.707 14.2578C126.582 14.2578 128.066 14.8047 129.18 15.918C130.273 17.0117 130.84 18.6719 130.84 20.8789V29.4531H126.504V21.5625C126.504 20.3711 126.25 19.4922 125.762 18.9063C125.273 18.3203 124.57 18.0273 123.652 18.0273C122.637 18.0273 121.816 18.3594 121.23 19.0234C120.645 19.6875 120.332 20.6641 120.332 21.9531V29.4727H116.016V21.582C116.016 19.2188 115.078 18.0469 113.184 18.0469C112.188 18.0469 111.387 18.3789 110.801 19.043C110.215 19.707 109.902 20.6836 109.902 21.9727V29.4922H105.566V14.4727H109.707V16.1914C110.254 15.5664 110.938 15.0781 111.758 14.7461C112.559 14.4141 113.457 14.2383 114.414 14.2383C115.469 14.2383 116.426 14.4531 117.285 14.8633C118.145 15.2734 118.828 15.8789 119.336 16.6797C119.941 15.8984 120.723 15.293 121.66 14.8633C122.578 14.4727 123.613 14.2578 124.707 14.2578ZM140.215 14.2578C142.539 14.2578 144.316 14.8047 145.547 15.918C146.797 17.0117 147.402 18.6914 147.402 20.918V29.4531H143.359V27.5977C142.539 28.9844 141.016 29.6875 138.789 29.6875C137.637 29.6875 136.641 29.4922 135.801 29.1016C134.961 28.7109 134.316 28.1836 133.867 27.4805C133.418 26.7969 133.203 26.0156 133.203 25.1367C133.203 23.75 133.73 22.6563 134.766 21.8555C135.82 21.0547 137.422 20.6641 139.629 20.6641H143.086C143.086 19.7266 142.793 18.9844 142.227 18.4766C141.66 17.9688 140.781 17.7148 139.648 17.7148C138.848 17.7148 138.066 17.832 137.305 18.0859C136.543 18.3398 135.879 18.6719 135.352 19.1016L133.789 16.0742C134.609 15.5078 135.586 15.0586 136.719 14.7461C137.852 14.4141 139.023 14.2578 140.215 14.2578ZM139.883 26.7383C140.625 26.7383 141.289 26.5625 141.855 26.2305C142.422 25.8789 142.832 25.3906 143.086 24.707V23.1836H140.117C138.34 23.1836 137.441 23.7695 137.441 24.9414C137.441 25.4883 137.656 25.9375 138.086 26.2695C138.535 26.582 139.121 26.7383 139.883 26.7383Z" fill="#0D4280"/>
<path d="M242.52 27.1289C243.574 27.1289 244.531 26.8945 245.391 26.4453C246.25 25.9961 246.914 25.3516 247.383 24.5312C247.852 23.7109 248.086 22.793 248.086 21.7578C248.086 20.7227 247.852 19.8047 247.383 18.9844C246.914 18.1836 246.25 17.5391 245.41 17.0898C244.57 16.6406 243.613 16.4063 242.539 16.4063C241.484 16.4063 240.527 16.6211 239.687 17.0703C238.848 17.5195 238.184 18.1445 237.715 18.9648C237.246 19.7852 237.012 20.7031 237.012 21.7383C237.012 22.7734 237.246 23.7109 237.715 24.5117C238.184 25.3125 238.848 25.957 239.687 26.4258C240.508 26.8945 241.465 27.1289 242.52 27.1289ZM250 14.8047V27.6563C250 30.1367 249.395 31.9727 248.184 33.1836C246.973 34.375 245.137 34.9805 242.695 34.9805C241.348 34.9805 240.059 34.7852 238.848 34.375C237.637 33.9844 236.641 33.418 235.879 32.7148L236.875 31.2109C237.578 31.8359 238.438 32.3242 239.453 32.6758C240.469 33.0273 241.523 33.2031 242.637 33.2031C244.492 33.2031 245.859 32.7734 246.719 31.9141C247.578 31.0547 248.027 29.707 248.027 27.8906V26.0352C247.422 26.9531 246.621 27.6758 245.625 28.1445C244.629 28.6328 243.535 28.8672 242.324 28.8672C240.957 28.8672 239.707 28.5742 238.574 27.9687C237.461 27.3633 236.563 26.5234 235.938 25.4297C235.293 24.3359 234.98 23.125 234.98 21.7383C234.98 20.3711 235.293 19.1406 235.938 18.0664C236.582 16.9922 237.461 16.1523 238.574 15.5664C239.688 14.9805 240.937 14.668 242.324 14.668C243.574 14.668 244.688 14.9219 245.684 15.4102C246.68 15.918 247.5 16.6406 248.105 17.5781V14.8047H250Z" fill="#29D1A9"/>
<path d="M225.742 14.6875C227.578 14.6875 229.043 15.2148 230.117 16.2891C231.211 17.3633 231.738 18.9063 231.738 20.957V29.4336H229.766V21.1523C229.766 19.6289 229.395 18.4766 228.633 17.6758C227.871 16.875 226.797 16.4844 225.371 16.4844C223.789 16.4844 222.539 16.9531 221.621 17.8906C220.703 18.8281 220.254 20.1172 220.254 21.7773V29.4531H218.281V14.8047H220.176V17.5C220.723 16.6016 221.465 15.918 222.422 15.4297C223.379 14.9414 224.492 14.6875 225.742 14.6875Z" fill="#29D1A9"/>
<path d="M212.539 11.6016C212.129 11.6016 211.797 11.4648 211.504 11.1914C211.23 10.918 211.094 10.5859 211.094 10.1953C211.094 9.82422 211.23 9.49219 211.504 9.21875C211.777 8.94531 212.129 8.80859 212.539 8.80859C212.949 8.80859 213.281 8.94531 213.574 9.21875C213.848 9.49219 213.984 9.80469 213.984 10.1758C213.984 10.5859 213.848 10.918 213.574 11.2109C213.301 11.4648 212.949 11.6016 212.539 11.6016Z" fill="#29D1A9"/>
<path d="M211.543 14.8047H213.516V29.4336H211.543V14.8047Z" fill="#29D1A9"/>
<path d="M201.211 22.0898L197.754 25.2734V29.4336H195.781V8.80859H197.754V22.793L206.484 14.8047H208.926L202.676 20.7813L209.512 29.4336H207.09L201.211 22.0898Z" fill="#29D1A9"/>
<path d="M187.461 17.6758C187.93 16.6992 188.613 15.957 189.531 15.4492C190.449 14.9414 191.582 14.707 192.93 14.707V16.6211L192.461 16.6016C190.918 16.6016 189.707 17.0703 188.848 18.0273C187.969 18.9648 187.539 20.293 187.539 22.0117V29.4727H185.566V14.8047H187.461V17.6758Z" fill="#29D1A9"/>
<path d="M174.316 28.0273C175.43 28.0273 176.387 27.7734 177.187 27.2656C177.988 26.7578 178.574 26.0156 178.965 25.0586V22.6563H174.375C171.875 22.6563 170.625 23.5352 170.625 25.2734C170.625 26.1328 170.957 26.7969 171.602 27.2852C172.246 27.7734 173.145 28.0273 174.316 28.0273ZM175.02 14.6875C176.934 14.6875 178.398 15.1563 179.414 16.1133C180.43 17.0703 180.938 18.4766 180.938 20.3516V29.4141H179.043V27.1484C178.594 27.9102 177.949 28.4961 177.09 28.9258C176.23 29.3555 175.195 29.5703 174.023 29.5703C172.383 29.5703 171.094 29.1797 170.137 28.3984C169.18 27.6172 168.691 26.582 168.691 25.3125C168.691 24.0625 169.141 23.0664 170.039 22.3047C170.937 21.543 172.363 21.1719 174.336 21.1719H178.984V20.2734C178.984 19.0039 178.633 18.0469 177.93 17.4023C177.227 16.7383 176.191 16.4063 174.844 16.4063C173.926 16.4063 173.027 16.5625 172.168 16.875C171.309 17.1875 170.586 17.5977 169.961 18.1445L169.062 16.6797C169.805 16.0547 170.703 15.5664 171.738 15.2148C172.773 14.8633 173.867 14.6875 175.02 14.6875Z" fill="#29D1A9"/>
<path d="M158.711 21.4844C160.645 21.4844 162.109 21.0547 163.125 20.2148C164.141 19.375 164.648 18.1836 164.648 16.6406C164.648 15.0586 164.141 13.8477 163.125 13.0078C162.109 12.168 160.625 11.7383 158.711 11.7383H153.535V21.4844H158.711ZM158.77 9.96094C161.25 9.96094 163.203 10.5469 164.609 11.7383C166.016 12.9297 166.719 14.5508 166.719 16.6406C166.719 18.7109 166.016 20.3516 164.609 21.5234C163.203 22.6953 161.25 23.2812 158.77 23.2812H153.535V29.4336H151.484V9.96094H158.77Z" fill="#29D1A9"/>
</g>
<defs>
<linearGradient id="paint0_linear_2_94" x1="2.34506" y1="54.8061" x2="45.9595" y2="-5.22408" gradientUnits="userSpaceOnUse">
<stop stop-color="#0D4280"/>
<stop offset="1" stop-color="#2CDBA9"/>
</linearGradient>
<clipPath id="clip0_2_94">
<rect width="250" height="60.3516" fill="white"/>
</clipPath>
</defs>
</svg>
